<svg width="96" height="96" viewBox="0 0 96 96" fill="none" xmlns="http://www.w3.org/2000/svg">
<path d="M72 89.5692L48 48M48 48L24 6.43078M48 48L89.5693 72.0001M48 48L6.43088 24M48 48L96 48.0001M48 48L0 48.0001M48 48L89.5693 24.0001M48 48L6.43087 72M48 48L72.0002 6.43089M48 48L24.0002 89.5693M48 48L48.0002 0M48 48L48.0002 96" stroke="black" stroke-width="4"/>
<path d="M72 89.5692L48 48M48 48L24 6.43078M48 48L89.5693 72.0001M48 48L6.43088 24M48 48L96 48.0001M48 48L0 48.0001M48 48L89.5693 24.0001M48 48L6.43087 72M48 48L72.0002 6.43089M48 48L24.0002 89.5693M48 48L48.0002 0M48 48L48.0002 96" stroke="#FD4B03" stroke-width="4"/>
</svg>
